<svg xmlns="http://www.w3.org/2000/svg" xmlns:xlink="http://www.w3.org/1999/xlink" width="500" zoomAndPan="magnify" viewBox="0 0 375 374.999991" height="500" preserveAspectRatio="xMidYMid meet" version="1.0"><defs><g/><clipPath id="33a9be7c73"><path d="M 90.386719 204.230469 L 284.753906 204.230469 L 284.753906 240.078125 L 90.386719 240.078125 Z M 90.386719 204.230469 " clip-rule="nonzero"/></clipPath><clipPath id="c3057a4c20"><path d="M 187.5 204.230469 C 133.863281 204.230469 90.386719 212.257812 90.386719 222.15625 C 90.386719 232.054688 133.863281 240.078125 187.5 240.078125 C 241.136719 240.078125 284.613281 232.054688 284.613281 222.15625 C 284.613281 212.257812 241.136719 204.230469 187.5 204.230469 Z M 187.5 204.230469 " clip-rule="nonzero"/></clipPath></defs><g clip-path="url(#33a9be7c73)"><g clip-path="url(#c3057a4c20)"><path fill="#d9d9d9" d="M 90.386719 204.230469 L 284.613281 204.230469 L 284.613281 240.078125 L 90.386719 240.078125 Z M 90.386719 204.230469 " fill-opacity="1" fill-rule="nonzero"/></g></g><g fill="#030029" fill-opacity="1"><g transform="translate(135.949214, 282.324356)"><g><path d="M 0.546875 -25.828125 L 0.25 -25.828125 L 0.25 -27.671875 L 7.828125 -27.671875 C 8.566406 -27.671875 9.3125 -27.675781 10.0625 -27.6875 C 10.8125 -27.695312 11.554688 -27.691406 12.296875 -27.671875 C 13.066406 -27.640625 13.832031 -27.59375 14.59375 -27.53125 C 15.363281 -27.476562 16.101562 -27.378906 16.8125 -27.234375 C 18.570312 -26.898438 20.039062 -26.285156 21.21875 -25.390625 C 22.394531 -24.492188 23.328125 -23.414062 24.015625 -22.15625 C 24.710938 -20.894531 25.210938 -19.53125 25.515625 -18.0625 C 25.816406 -16.601562 25.96875 -15.109375 25.96875 -13.578125 C 25.96875 -12.078125 25.800781 -10.59375 25.46875 -9.125 C 25.144531 -7.664062 24.617188 -6.328125 23.890625 -5.109375 C 23.171875 -3.890625 22.203125 -2.851562 20.984375 -2 C 19.765625 -1.144531 18.257812 -0.59375 16.46875 -0.34375 C 15.132812 -0.144531 13.707031 -0.0351562 12.1875 -0.015625 C 10.675781 -0.00390625 9.222656 0 7.828125 0 L 0.25 0 L 0.25 -1.828125 L 0.546875 -1.828125 C 1.203125 -1.796875 1.722656 -1.90625 2.109375 -2.15625 C 2.492188 -2.414062 2.6875 -2.859375 2.6875 -3.484375 L 2.6875 -24.171875 C 2.6875 -24.796875 2.492188 -25.234375 2.109375 -25.484375 C 1.722656 -25.742188 1.203125 -25.859375 0.546875 -25.828125 Z M 14.9375 -25.28125 C 14.375 -25.476562 13.6875 -25.613281 12.875 -25.6875 C 12.0625 -25.757812 11.238281 -25.804688 10.40625 -25.828125 C 9.570312 -25.859375 8.8125 -25.875 8.125 -25.875 L 8.125 -1.828125 C 9.375 -1.828125 10.601562 -1.894531 11.8125 -2.03125 C 13.019531 -2.175781 14.144531 -2.519531 15.1875 -3.0625 C 16.519531 -3.75 17.546875 -4.703125 18.265625 -5.921875 C 18.992188 -7.140625 19.507812 -8.460938 19.8125 -9.890625 C 20.113281 -11.328125 20.265625 -12.726562 20.265625 -14.09375 C 20.265625 -15.03125 20.171875 -16.070312 19.984375 -17.21875 C 19.796875 -18.363281 19.503906 -19.488281 19.109375 -20.59375 C 18.710938 -21.707031 18.171875 -22.6875 17.484375 -23.53125 C 16.804688 -24.382812 15.957031 -24.96875 14.9375 -25.28125 Z M 14.9375 -25.28125 "/></g></g></g><g fill="#030029" fill-opacity="1"><g transform="translate(162.798734, 282.324356)"><g><path d="M 0.25 -1.828125 L 0.546875 -1.828125 C 1.203125 -1.796875 1.722656 -1.90625 2.109375 -2.15625 C 2.492188 -2.414062 2.6875 -2.859375 2.6875 -3.484375 L 2.6875 -24.171875 C 2.6875 -24.796875 2.492188 -25.234375 2.109375 -25.484375 C 1.722656 -25.742188 1.203125 -25.859375 0.546875 -25.828125 L 0.25 -25.828125 L 0.25 -27.671875 L 20.8125 -27.671875 L 22.734375 -18.8125 L 20.9375 -18.734375 L 20.859375 -18.9375 C 20.660156 -19.363281 20.484375 -19.800781 20.328125 -20.25 C 20.171875 -20.707031 19.976562 -21.148438 19.75 -21.578125 C 19.09375 -22.992188 18.242188 -24.054688 17.203125 -24.765625 C 16.171875 -25.472656 14.832031 -25.828125 13.1875 -25.828125 L 8.125 -25.828125 L 8.125 -14.390625 C 8.863281 -14.390625 9.585938 -14.394531 10.296875 -14.40625 C 11.003906 -14.414062 11.710938 -14.421875 12.421875 -14.421875 C 13.929688 -14.453125 15.109375 -14.691406 15.953125 -15.140625 C 16.804688 -15.597656 17.25 -16.566406 17.28125 -18.046875 L 17.28125 -18.296875 L 19.109375 -18.296875 L 19.109375 -9.328125 L 17.234375 -9.328125 L 17.234375 -9.578125 C 17.265625 -10.515625 17.054688 -11.179688 16.609375 -11.578125 C 16.171875 -11.972656 15.59375 -12.21875 14.875 -12.3125 C 14.15625 -12.414062 13.335938 -12.46875 12.421875 -12.46875 C 11.710938 -12.5 11.003906 -12.515625 10.296875 -12.515625 C 9.585938 -12.515625 8.863281 -12.515625 8.125 -12.515625 L 8.125 -1.828125 L 15.1875 -1.828125 C 16.632812 -1.828125 17.796875 -2.207031 18.671875 -2.96875 C 19.554688 -3.738281 20.285156 -4.734375 20.859375 -5.953125 C 21.085938 -6.410156 21.285156 -6.878906 21.453125 -7.359375 C 21.617188 -7.847656 21.800781 -8.316406 22 -8.765625 L 22.09375 -8.9375 L 23.828125 -8.859375 L 21.96875 0 L 0.25 0 Z M 0.25 -1.828125 "/></g></g></g><g fill="#030029" fill-opacity="1"><g transform="translate(186.797348, 282.324356)"><g><path d="M 10.8125 0 L 0.078125 0 L 0.078125 -1.828125 L 0.390625 -1.828125 C 1.410156 -1.859375 2.265625 -2.15625 2.953125 -2.71875 C 3.648438 -3.289062 4.195312 -4.03125 4.59375 -4.9375 L 14.390625 -27.671875 L 16.34375 -27.671875 L 26.515625 -3.75 C 26.828125 -3.039062 27.195312 -2.539062 27.625 -2.25 C 28.050781 -1.96875 28.632812 -1.828125 29.375 -1.828125 L 29.671875 -1.828125 L 29.671875 0 L 18.390625 0 L 18.390625 -1.828125 L 18.6875 -1.828125 C 19.050781 -1.828125 19.488281 -1.867188 20 -1.953125 C 20.507812 -2.035156 20.765625 -2.335938 20.765625 -2.859375 C 20.765625 -3.109375 20.722656 -3.332031 20.640625 -3.53125 L 17.703125 -10.421875 L 9.1875 -10.421875 L 6.8125 -4.71875 C 6.75 -4.582031 6.703125 -4.40625 6.671875 -4.1875 C 6.648438 -3.976562 6.640625 -3.773438 6.640625 -3.578125 C 6.640625 -2.867188 6.929688 -2.414062 7.515625 -2.21875 C 8.097656 -2.019531 8.65625 -1.890625 9.1875 -1.828125 C 9.414062 -1.828125 9.644531 -1.828125 9.875 -1.828125 C 10.101562 -1.828125 10.316406 -1.828125 10.515625 -1.828125 L 10.8125 -1.828125 Z M 13.40625 -20.5625 L 9.921875 -12.265625 L 16.9375 -12.265625 Z M 13.40625 -20.5625 "/></g></g></g><g fill="#030029" fill-opacity="1"><g transform="translate(216.327566, 282.324356)"><g><path d="M 0.171875 -27.671875 L 10.46875 -27.671875 L 10.46875 -25.828125 L 10.171875 -25.828125 C 9.515625 -25.828125 8.992188 -25.707031 8.609375 -25.46875 C 8.234375 -25.226562 8.046875 -24.796875 8.046875 -24.171875 L 8.125 -1.828125 L 11.15625 -1.828125 C 12.457031 -1.828125 13.734375 -2.003906 14.984375 -2.359375 C 16.234375 -2.710938 17.359375 -3.257812 18.359375 -4 C 19.367188 -4.738281 20.144531 -5.691406 20.6875 -6.859375 L 20.765625 -7.0625 L 22.5625 -6.984375 L 20.640625 0 L 0.171875 0 L 0.171875 -1.828125 L 0.46875 -1.828125 C 1.125 -1.828125 1.640625 -1.945312 2.015625 -2.1875 C 2.398438 -2.425781 2.59375 -2.859375 2.59375 -3.484375 L 2.59375 -24.171875 C 2.59375 -24.796875 2.398438 -25.226562 2.015625 -25.46875 C 1.640625 -25.707031 1.125 -25.828125 0.46875 -25.828125 L 0.171875 -25.828125 Z M 0.171875 -27.671875 "/></g></g></g><g fill="#ff5757" fill-opacity="1"><g transform="translate(159.113967, 304.766524)"><g><path d="M 3.25 0.078125 C 2.695312 0.078125 2.160156 -0.00390625 1.640625 -0.171875 C 1.128906 -0.347656 0.726562 -0.570312 0.4375 -0.84375 L 0.8125 -1.65625 C 1.09375 -1.40625 1.453125 -1.203125 1.890625 -1.046875 C 2.335938 -0.890625 2.789062 -0.8125 3.25 -0.8125 C 3.863281 -0.8125 4.316406 -0.914062 4.609375 -1.125 C 4.910156 -1.332031 5.0625 -1.609375 5.0625 -1.953125 C 5.0625 -2.203125 4.976562 -2.40625 4.8125 -2.5625 C 4.65625 -2.71875 4.453125 -2.835938 4.203125 -2.921875 C 3.960938 -3.003906 3.625 -3.097656 3.1875 -3.203125 C 2.632812 -3.335938 2.1875 -3.472656 1.84375 -3.609375 C 1.5 -3.742188 1.207031 -3.945312 0.96875 -4.21875 C 0.726562 -4.5 0.609375 -4.875 0.609375 -5.34375 C 0.609375 -5.738281 0.710938 -6.09375 0.921875 -6.40625 C 1.128906 -6.71875 1.441406 -6.96875 1.859375 -7.15625 C 2.285156 -7.34375 2.804688 -7.4375 3.421875 -7.4375 C 3.859375 -7.4375 4.285156 -7.378906 4.703125 -7.265625 C 5.128906 -7.160156 5.492188 -7.003906 5.796875 -6.796875 L 5.453125 -5.953125 C 5.140625 -6.148438 4.804688 -6.296875 4.453125 -6.390625 C 4.109375 -6.492188 3.765625 -6.546875 3.421875 -6.546875 C 2.828125 -6.546875 2.378906 -6.4375 2.078125 -6.21875 C 1.785156 -6.007812 1.640625 -5.734375 1.640625 -5.390625 C 1.640625 -5.128906 1.722656 -4.921875 1.890625 -4.765625 C 2.054688 -4.609375 2.265625 -4.484375 2.515625 -4.390625 C 2.765625 -4.304688 3.101562 -4.21875 3.53125 -4.125 C 4.082031 -3.988281 4.523438 -3.851562 4.859375 -3.71875 C 5.203125 -3.582031 5.492188 -3.378906 5.734375 -3.109375 C 5.972656 -2.835938 6.09375 -2.472656 6.09375 -2.015625 C 6.09375 -1.628906 5.988281 -1.273438 5.78125 -0.953125 C 5.570312 -0.628906 5.253906 -0.375 4.828125 -0.1875 C 4.398438 -0.0078125 3.875 0.078125 3.25 0.078125 Z M 3.25 0.078125 "/></g></g></g><g fill="#ff5757" fill-opacity="1"><g transform="translate(174.060367, 304.766524)"><g><path d="M 7.4375 -7.359375 L 7.4375 0 L 6.390625 0 L 6.390625 -3.28125 L 2.15625 -3.28125 L 2.15625 0 L 1.109375 0 L 1.109375 -7.359375 L 2.15625 -7.359375 L 2.15625 -4.203125 L 6.390625 -4.203125 L 6.390625 -7.359375 Z M 7.4375 -7.359375 "/></g></g></g><g fill="#ff5757" fill-opacity="1"><g transform="translate(191.014507, 304.766524)"><g><path d="M 4.421875 0.078125 C 3.679688 0.078125 3.015625 -0.0820312 2.421875 -0.40625 C 1.828125 -0.726562 1.359375 -1.175781 1.015625 -1.75 C 0.671875 -2.332031 0.5 -2.976562 0.5 -3.6875 C 0.5 -4.394531 0.671875 -5.035156 1.015625 -5.609375 C 1.359375 -6.179688 1.828125 -6.628906 2.421875 -6.953125 C 3.015625 -7.273438 3.679688 -7.4375 4.421875 -7.4375 C 5.160156 -7.4375 5.828125 -7.273438 6.421875 -6.953125 C 7.015625 -6.628906 7.476562 -6.179688 7.8125 -5.609375 C 8.15625 -5.035156 8.328125 -4.394531 8.328125 -3.6875 C 8.328125 -2.96875 8.15625 -2.320312 7.8125 -1.75 C 7.476562 -1.175781 7.015625 -0.726562 6.421875 -0.40625 C 5.828125 -0.0820312 5.160156 0.078125 4.421875 0.078125 Z M 4.421875 -0.859375 C 4.960938 -0.859375 5.445312 -0.976562 5.875 -1.21875 C 6.3125 -1.46875 6.65625 -1.804688 6.90625 -2.234375 C 7.15625 -2.660156 7.28125 -3.144531 7.28125 -3.6875 C 7.28125 -4.21875 7.15625 -4.695312 6.90625 -5.125 C 6.65625 -5.550781 6.3125 -5.890625 5.875 -6.140625 C 5.445312 -6.390625 4.960938 -6.515625 4.421875 -6.515625 C 3.890625 -6.515625 3.398438 -6.390625 2.953125 -6.140625 C 2.515625 -5.890625 2.171875 -5.550781 1.921875 -5.125 C 1.679688 -4.695312 1.5625 -4.21875 1.5625 -3.6875 C 1.5625 -3.144531 1.679688 -2.660156 1.921875 -2.234375 C 2.171875 -1.804688 2.515625 -1.46875 2.953125 -1.21875 C 3.398438 -0.976562 3.890625 -0.859375 4.421875 -0.859375 Z M 4.421875 -0.859375 "/></g></g></g><g fill="#ff5757" fill-opacity="1"><g transform="translate(208.262979, 304.766524)"><g><path d="M 3.96875 -7.359375 C 4.925781 -7.359375 5.675781 -7.128906 6.21875 -6.671875 C 6.769531 -6.222656 7.046875 -5.597656 7.046875 -4.796875 C 7.046875 -3.992188 6.769531 -3.363281 6.21875 -2.90625 C 5.675781 -2.457031 4.925781 -2.234375 3.96875 -2.234375 L 2.15625 -2.234375 L 2.15625 0 L 1.109375 0 L 1.109375 -7.359375 Z M 3.9375 -3.140625 C 4.601562 -3.140625 5.113281 -3.28125 5.46875 -3.5625 C 5.820312 -3.851562 6 -4.265625 6 -4.796875 C 6 -5.328125 5.820312 -5.734375 5.46875 -6.015625 C 5.113281 -6.304688 4.601562 -6.453125 3.9375 -6.453125 L 2.15625 -6.453125 L 2.15625 -3.140625 Z M 3.9375 -3.140625 "/></g></g></g><g fill="#ff5757" fill-opacity="1"><g transform="translate(115.966931, 218.697355)"><g><path d="M 14.234375 -87.359375 L 49.796875 -87.359375 C 59.023438 -87.359375 67.175781 -85.503906 74.25 -81.796875 C 81.320312 -78.097656 86.8125 -72.941406 90.71875 -66.328125 C 94.632812 -59.710938 96.59375 -52.160156 96.59375 -43.671875 C 96.59375 -35.191406 94.632812 -27.644531 90.71875 -21.03125 C 86.8125 -14.414062 81.320312 -9.253906 74.25 -5.546875 C 67.175781 -1.847656 59.023438 0 49.796875 0 L 14.234375 0 Z M 49.296875 -7.984375 C 56.953125 -7.984375 63.648438 -9.5 69.390625 -12.53125 C 75.128906 -15.570312 79.578125 -19.773438 82.734375 -25.140625 C 85.898438 -30.515625 87.484375 -36.691406 87.484375 -43.671875 C 87.484375 -50.660156 85.898438 -56.835938 82.734375 -62.203125 C 79.578125 -67.578125 75.128906 -71.78125 69.390625 -74.8125 C 63.648438 -77.851562 56.953125 -79.375 49.296875 -79.375 L 23.46875 -79.375 L 23.46875 -7.984375 Z M 49.296875 -7.984375 "/></g></g></g><g fill="#030029" fill-opacity="1"><g transform="translate(167.556337, 227.21883)"><g><path d="M 40.484375 0.84375 C 33.285156 0.84375 26.394531 -0.195312 19.8125 -2.28125 C 13.238281 -4.363281 8.097656 -6.976562 4.390625 -10.125 L 9.78125 -19.5625 C 13.5 -16.644531 18.164062 -14.253906 23.78125 -12.390625 C 29.40625 -10.535156 35.253906 -9.609375 41.328125 -9.609375 C 49.429688 -9.609375 55.421875 -10.875 59.296875 -13.40625 C 63.179688 -15.9375 65.125 -19.507812 65.125 -24.125 C 65.125 -27.382812 64.050781 -29.941406 61.90625 -31.796875 C 59.769531 -33.648438 57.070312 -35.054688 53.8125 -36.015625 C 50.550781 -36.972656 46.222656 -37.898438 40.828125 -38.796875 C 33.628906 -40.148438 27.835938 -41.53125 23.453125 -42.9375 C 19.066406 -44.34375 15.328125 -46.734375 12.234375 -50.109375 C 9.140625 -53.484375 7.59375 -58.148438 7.59375 -64.109375 C 7.59375 -71.523438 10.6875 -77.59375 16.875 -82.3125 C 23.0625 -87.039062 31.664062 -89.40625 42.6875 -89.40625 C 48.414062 -89.40625 54.148438 -88.644531 59.890625 -87.125 C 65.628906 -85.613281 70.351562 -83.617188 74.0625 -81.140625 L 68.828125 -71.53125 C 61.515625 -76.59375 52.800781 -79.125 42.6875 -79.125 C 35.03125 -79.125 29.257812 -77.773438 25.375 -75.078125 C 21.5 -72.378906 19.5625 -68.832031 19.5625 -64.4375 C 19.5625 -61.070312 20.660156 -58.375 22.859375 -56.34375 C 25.054688 -54.320312 27.785156 -52.832031 31.046875 -51.875 C 34.304688 -50.914062 38.800781 -49.929688 44.53125 -48.921875 C 51.625 -47.578125 57.304688 -46.226562 61.578125 -44.875 C 65.847656 -43.519531 69.5 -41.210938 72.53125 -37.953125 C 75.570312 -34.691406 77.09375 -30.195312 77.09375 -24.46875 C 77.09375 -16.707031 73.859375 -10.546875 67.390625 -5.984375 C 60.929688 -1.429688 51.960938 0.84375 40.484375 0.84375 Z M 40.484375 0.84375 "/></g></g></g></svg>